<svg xmlns="http://www.w3.org/2000/svg" viewBox="0 0 82.205 82.205"><title>logo-spb</title><ellipse cx="39.289" cy="33.746" rx="3.405" ry="2.47" style="fill:red"/><ellipse cx="26.152" cy="25.285" rx="5.176" ry="1.362" style="fill:red"/><ellipse cx="52.486" cy="25.285" rx="5.176" ry="1.362" style="fill:red"/><path d="M80.1,54.693,50.777,38.4l-.554.847L79.778,55.668C79.892,55.347,79.993,55.018,80.1,54.693Z" transform="translate(0 0)" style="fill:red"/><path d="M51.7,36.98l-.54.825L80.322,54.011c.1-.321.19-.645.281-.969Z" transform="translate(0 0)" style="fill:red"/><path d="M26.551,36.389l-.4-.607L4.481,47.131C1.888,30.173,10.624,11.882,28.64,6.092c14.3-4.35,30.066-.053,39.136,11.826a31.473,31.473,0,0,1,3.347,27.623L52.487,35.782l-.4.607,28.7,15.954a43.31,43.31,0,0,0,1.411-11.017C82.205,17.774,64.655,0,41.1,0S0,17.774,0,41.326a43.615,43.615,0,0,0,.993,9.268Z" transform="translate(0 0)" style="fill:red"/><path d="M1.4,52.3,27.477,37.805l-.54-.825L1.151,51.312C1.229,51.643,1.313,51.971,1.4,52.3Z" transform="translate(0 0)" style="fill:red"/><path d="M49.837,39.832l-1.186,1.812L66.905,53.59a30.14,30.14,0,0,1-4.132,4.659c-11.557,9.908-28.551,11.2-41.106,1.964L15.159,68a37.994,37.994,0,0,1-4.907-5.875,40.616,40.616,0,0,1-3.031-5.579l22.769-14.9L28.8,39.832,2.1,54.674c5.313,16.257,20.249,27.531,39,27.531,18.11,0,32.66-10.513,38.423-25.873Z" transform="translate(0 0)" style="fill:red"/><path d="M28.418,39.242l-.554-.847L1.589,53c.094.333.187.666.288,1Z" transform="translate(0 0)" style="fill:red"/></svg>